<?xml version="1.0" encoding="UTF-8" standalone="no"?>
<svg
   xmlns:dc="http://purl.org/dc/elements/1.1/"
   xmlns:cc="http://creativecommons.org/ns#"
   xmlns:rdf="http://www.w3.org/1999/02/22-rdf-syntax-ns#"
   xmlns:svg="http://www.w3.org/2000/svg"
   xmlns="http://www.w3.org/2000/svg"
   xml:space="preserve"
   style="enable-background:new 0 0 54 54;"
   viewBox="0 0 54 54"
   preserveAspectRatio="xMidYMid meet"
   y="0px"
   x="0px"
   id="Layer_1"
   version="1.1"><metadata
   id="metadata38"><rdf:RDF><cc:Work
       rdf:about=""><dc:format>image/svg+xml</dc:format><dc:type
         rdf:resource="http://purl.org/dc/dcmitype/StillImage" /><dc:title></dc:title></cc:Work></rdf:RDF></metadata><defs
   id="defs36" />
<style
   id="style25"
   type="text/css">
	.st0{fill:none;}
  #path29 {fill: #0077b5;}
</style>
<g
   id="g31">
	<rect
   id="rect27"
   class="st0"
   y="0.1"
   x="-0.2" />
	<path
   style="stroke-width:1.24867606"
   id="path29"
   d="m 53.763309,10.297939 v 33.464518 c 0,2.747088 -0.998941,5.119571 -2.996823,7.117453 -1.997881,1.997881 -4.370366,2.996822 -7.117453,2.996822 h -33.33965 c -2.7470874,0 -5.1195718,-0.998941 -7.1174535,-2.996822 C 1.1940479,48.882028 0.19510709,46.509545 0.19510709,43.762457 V 10.297939 c 0,-2.7470869 0.99894081,-5.1195715 2.99682241,-7.1174531 C 5.1898112,1.1826042 7.5622956,0.1836634 10.309383,0.1836634 h 33.33965 c 2.747087,0 5.119572,0.9989408 7.117453,2.9968225 1.997882,1.9978816 2.996823,4.3703662 2.996823,7.1174531 z m -36.711075,3.12169 c 0,-1.248675 -0.49947,-2.247617 -1.248676,-2.996822 C 14.929485,9.5487336 13.930544,9.1741309 12.557,9.1741309 c -1.373543,0 -2.497352,0.3746027 -3.2465577,1.1238081 -0.8740734,0.749206 -1.2486762,1.748147 -1.2486762,2.996822 0,1.123809 0.3746028,2.12275 1.2486762,2.996824 C 10.184516,17.04079 11.183457,17.54026 12.557,17.54026 v 0 c 1.373544,0 2.497351,-0.374603 3.371425,-1.248675 0.749205,-0.749207 1.123809,-1.748147 1.123809,-2.871956 z M 8.4363689,45.011132 H 16.427896 V 20.786818 H 8.4363689 Z m 28.9692831,0 h 7.991527 V 31.150828 c 0,-3.621159 -0.874072,-6.243379 -2.497351,-8.116393 -1.748148,-1.873015 -3.995763,-2.747087 -6.742851,-2.747087 -3.12169,0 -5.619042,1.373543 -7.242321,4.12063 h 0.124868 v -3.496293 h -7.991527 c 0.124868,1.498412 0.124868,9.614806 0,24.224315 h 7.991527 V 31.525432 c 0,-0.874074 0.124867,-1.498412 0.249734,-1.997882 0.374603,-0.874073 0.874073,-1.498411 1.623279,-2.12275 0.749207,-0.624338 1.498412,-0.874073 2.62222,-0.874073 2.747088,0 3.995763,1.873014 3.995763,5.494175 v 12.98623 z" />
</g>
</svg>